<mxfile host="app.diagrams.net" agent="Mozilla/5.0 (X11; Linux x86_64) AppleWebKit/537.36 (KHTML, like Gecko) Chrome/134.0.0.0 Safari/537.36" version="28.2.8">
  <diagram name="Page-1" id="uN3rcvP-9OjwmawLnxJE">
    <mxGraphModel dx="870" dy="566" grid="1" gridSize="10" guides="1" tooltips="1" connect="1" arrows="1" fold="1" page="1" pageScale="1" pageWidth="4681" pageHeight="3300" math="0" shadow="0">
      <root>
        <mxCell id="0" />
        <mxCell id="1" parent="0" />
        <mxCell id="roKK1uyL24OkzOTye3WL-1" value="Data on reindeer populations" style="swimlane;fontStyle=0;childLayout=stackLayout;horizontal=1;startSize=30;strokeColor=#DAEEF3;fillColor=none;strokeWidth=3;horizontalStack=0;resizeParent=1;resizeParentMax=0;resizeLast=0;collapsible=1;marginBottom=0;whiteSpace=wrap;html=1;" parent="1" vertex="1">
          <mxGeometry x="480" y="450" width="230" height="56" as="geometry" />
        </mxCell>
        <mxCell id="roKK1uyL24OkzOTye3WL-2" value="Record Set" style="text;strokeColor=#DAEEF3;strokeWidth=3;fillColor=none;align=center;verticalAlign=top;spacingLeft=4;spacingRight=4;overflow=hidden;rotatable=0;points=[[0,0.5],[1,0.5]];portConstraint=eastwest;whiteSpace=wrap;html=1;" parent="roKK1uyL24OkzOTye3WL-1" vertex="1">
          <mxGeometry y="30" width="230" height="26" as="geometry" />
        </mxCell>
        <mxCell id="-GdzhVlodLEhEL-gGOPg-39" value="" style="endArrow=classic;html=1;rounded=0;entryX=0.397;entryY=1.081;entryDx=0;entryDy=0;exitX=0.397;exitY=1.081;exitDx=0;exitDy=0;exitPerimeter=0;entryPerimeter=0;" parent="roKK1uyL24OkzOTye3WL-1" source="roKK1uyL24OkzOTye3WL-2" edge="1">
          <mxGeometry relative="1" as="geometry">
            <mxPoint x="124.5" y="65" as="sourcePoint" />
            <mxPoint x="-54.5" y="170" as="targetPoint" />
          </mxGeometry>
        </mxCell>
        <mxCell id="-GdzhVlodLEhEL-gGOPg-40" value="documents" style="edgeLabel;resizable=0;html=1;;align=center;verticalAlign=middle;" parent="-GdzhVlodLEhEL-gGOPg-39" connectable="0" vertex="1">
          <mxGeometry relative="1" as="geometry" />
        </mxCell>
        <mxCell id="roKK1uyL24OkzOTye3WL-3" value="NINA (Norwegian Institute for Nature Research)" style="swimlane;fontStyle=0;childLayout=stackLayout;horizontal=1;startSize=30;strokeColor=#C6D9F1;strokeWidth=3;fillColor=none;horizontalStack=0;resizeParent=1;resizeParentMax=0;resizeLast=0;collapsible=1;marginBottom=0;whiteSpace=wrap;html=1;" parent="1" vertex="1">
          <mxGeometry x="770" y="300" width="190" height="56" as="geometry" />
        </mxCell>
        <mxCell id="roKK1uyL24OkzOTye3WL-4" value="Corporate Body" style="text;strokeColor=#C6D9F1;strokeWidth=3;fillColor=none;align=center;verticalAlign=top;spacingLeft=4;spacingRight=4;overflow=hidden;rotatable=0;points=[[0,0.5],[1,0.5]];portConstraint=eastwest;whiteSpace=wrap;html=1;" parent="roKK1uyL24OkzOTye3WL-3" vertex="1">
          <mxGeometry y="30" width="190" height="26" as="geometry" />
        </mxCell>
        <mxCell id="roKK1uyL24OkzOTye3WL-5" value="" style="endArrow=classic;html=1;rounded=0;entryX=0;entryY=0.5;entryDx=0;entryDy=0;exitX=0.57;exitY=-0.036;exitDx=0;exitDy=0;exitPerimeter=0;" parent="1" source="roKK1uyL24OkzOTye3WL-1" target="roKK1uyL24OkzOTye3WL-4" edge="1">
          <mxGeometry relative="1" as="geometry">
            <mxPoint x="570" y="370" as="sourcePoint" />
            <mxPoint x="770" y="370" as="targetPoint" />
          </mxGeometry>
        </mxCell>
        <mxCell id="roKK1uyL24OkzOTye3WL-6" value="has creator" style="edgeLabel;resizable=0;html=1;;align=center;verticalAlign=middle;" parent="roKK1uyL24OkzOTye3WL-5" connectable="0" vertex="1">
          <mxGeometry relative="1" as="geometry" />
        </mxCell>
        <mxCell id="-GdzhVlodLEhEL-gGOPg-1" value="" style="endArrow=classic;html=1;rounded=0;exitX=0.296;exitY=-0.054;exitDx=0;exitDy=0;exitPerimeter=0;" parent="1" source="roKK1uyL24OkzOTye3WL-1" target="-GdzhVlodLEhEL-gGOPg-3" edge="1">
          <mxGeometry relative="1" as="geometry">
            <mxPoint x="530" y="346" as="sourcePoint" />
            <mxPoint x="450" y="300" as="targetPoint" />
          </mxGeometry>
        </mxCell>
        <mxCell id="-GdzhVlodLEhEL-gGOPg-2" value="has or had instantiation" style="edgeLabel;resizable=0;html=1;;align=center;verticalAlign=middle;" parent="-GdzhVlodLEhEL-gGOPg-1" connectable="0" vertex="1">
          <mxGeometry relative="1" as="geometry" />
        </mxCell>
        <mxCell id="-GdzhVlodLEhEL-gGOPg-3" value="Data files on reindeer populations" style="swimlane;fontStyle=0;childLayout=stackLayout;horizontal=1;startSize=40;strokeColor=#F5DEB3;strokeWidth=2;fillColor=none;horizontalStack=0;resizeParent=1;resizeParentMax=0;resizeLast=0;collapsible=1;marginBottom=0;whiteSpace=wrap;html=1;" parent="1" vertex="1">
          <mxGeometry x="230" y="300" width="140" height="66" as="geometry" />
        </mxCell>
        <mxCell id="-GdzhVlodLEhEL-gGOPg-4" value="Instantiation&lt;div&gt;&lt;br&gt;&lt;/div&gt;" style="text;strokeColor=#F5DEB3;strokeWidth=2;fillColor=#F5DEB3;align=center;verticalAlign=top;spacingLeft=4;spacingRight=4;overflow=hidden;rotatable=0;points=[[0,0.5],[1,0.5]];portConstraint=eastwest;whiteSpace=wrap;html=1;" parent="-GdzhVlodLEhEL-gGOPg-3" vertex="1">
          <mxGeometry y="40" width="140" height="26" as="geometry" />
        </mxCell>
        <mxCell id="-GdzhVlodLEhEL-gGOPg-7" value="" style="endArrow=classic;html=1;rounded=0;entryX=0;entryY=0.5;entryDx=0;entryDy=0;exitX=1.006;exitY=0.412;exitDx=0;exitDy=0;exitPerimeter=0;" parent="1" source="-GdzhVlodLEhEL-gGOPg-3" target="roKK1uyL24OkzOTye3WL-3" edge="1">
          <mxGeometry relative="1" as="geometry">
            <mxPoint x="520" y="320" as="sourcePoint" />
            <mxPoint x="700" y="320" as="targetPoint" />
          </mxGeometry>
        </mxCell>
        <mxCell id="-GdzhVlodLEhEL-gGOPg-8" value="has or had holder" style="edgeLabel;resizable=0;html=1;;align=center;verticalAlign=middle;" parent="-GdzhVlodLEhEL-gGOPg-7" connectable="0" vertex="1">
          <mxGeometry relative="1" as="geometry" />
        </mxCell>
        <mxCell id="-GdzhVlodLEhEL-gGOPg-11" value="https://reindeermaps.nina.no" style="swimlane;fontStyle=0;childLayout=stackLayout;horizontal=1;startSize=26;strokeColor=#FBD5B5;fillColor=none;horizontalStack=0;resizeParent=1;resizeParentMax=0;resizeLast=0;collapsible=1;marginBottom=0;whiteSpace=wrap;html=1;" parent="1" vertex="1">
          <mxGeometry x="420" y="60" width="190" height="52" as="geometry" />
        </mxCell>
        <mxCell id="-GdzhVlodLEhEL-gGOPg-12" value="Thing" style="text;strokeColor=#FBD5B5;fillColor=#FBD5B5;align=center;verticalAlign=top;spacingLeft=4;spacingRight=4;overflow=hidden;rotatable=0;points=[[0,0.5],[1,0.5]];portConstraint=eastwest;whiteSpace=wrap;html=1;" parent="-GdzhVlodLEhEL-gGOPg-11" vertex="1">
          <mxGeometry y="26" width="190" height="26" as="geometry" />
        </mxCell>
        <mxCell id="-GdzhVlodLEhEL-gGOPg-13" value="" style="endArrow=classic;html=1;rounded=0;entryX=0.5;entryY=1;entryDx=0;entryDy=0;exitX=1;exitY=0;exitDx=0;exitDy=0;" parent="1" source="-GdzhVlodLEhEL-gGOPg-3" target="-GdzhVlodLEhEL-gGOPg-11" edge="1">
          <mxGeometry relative="1" as="geometry">
            <mxPoint x="290" y="201" as="sourcePoint" />
            <mxPoint x="500" y="110" as="targetPoint" />
          </mxGeometry>
        </mxCell>
        <mxCell id="-GdzhVlodLEhEL-gGOPg-14" value="is related to" style="edgeLabel;resizable=0;html=1;;align=center;verticalAlign=middle;" parent="-GdzhVlodLEhEL-gGOPg-13" connectable="0" vertex="1">
          <mxGeometry relative="1" as="geometry" />
        </mxCell>
        <mxCell id="-GdzhVlodLEhEL-gGOPg-15" value="" style="endArrow=classic;html=1;rounded=0;exitX=0.5;exitY=0;exitDx=0;exitDy=0;entryX=0;entryY=0.5;entryDx=0;entryDy=0;" parent="1" source="-GdzhVlodLEhEL-gGOPg-3" target="-GdzhVlodLEhEL-gGOPg-11" edge="1">
          <mxGeometry relative="1" as="geometry">
            <mxPoint x="200" y="180" as="sourcePoint" />
            <mxPoint x="430" y="60" as="targetPoint" />
          </mxGeometry>
        </mxCell>
        <mxCell id="-GdzhVlodLEhEL-gGOPg-16" value="dcterms:source" style="edgeLabel;resizable=0;html=1;;align=center;verticalAlign=middle;" parent="-GdzhVlodLEhEL-gGOPg-15" connectable="0" vertex="1">
          <mxGeometry relative="1" as="geometry" />
        </mxCell>
        <mxCell id="-GdzhVlodLEhEL-gGOPg-17" value="Website of reindeer maps" style="html=1;whiteSpace=wrap;rounded=1;arcSize=50;labelPadding=0;" parent="1" vertex="1">
          <mxGeometry x="810" y="60" width="110" height="50" as="geometry" />
        </mxCell>
        <mxCell id="-GdzhVlodLEhEL-gGOPg-18" value="" style="endArrow=classic;html=1;rounded=0;exitX=1;exitY=0.5;exitDx=0;exitDy=0;" parent="1" source="-GdzhVlodLEhEL-gGOPg-11" target="-GdzhVlodLEhEL-gGOPg-17" edge="1">
          <mxGeometry relative="1" as="geometry">
            <mxPoint x="640" y="104" as="sourcePoint" />
            <mxPoint x="930" y="104" as="targetPoint" />
          </mxGeometry>
        </mxCell>
        <mxCell id="-GdzhVlodLEhEL-gGOPg-19" value="dcterms:description" style="edgeLabel;resizable=0;html=1;;align=center;verticalAlign=middle;" parent="-GdzhVlodLEhEL-gGOPg-18" connectable="0" vertex="1">
          <mxGeometry relative="1" as="geometry" />
        </mxCell>
        <mxCell id="-GdzhVlodLEhEL-gGOPg-24" value="Statistical analysis of raw field data files on reindeer populations" style="swimlane;fontStyle=0;childLayout=stackLayout;horizontal=1;startSize=40;strokeColor=#FFFAA0;strokeWidth=3;fillColor=none;horizontalStack=0;resizeParent=1;resizeParentMax=0;resizeLast=0;collapsible=1;marginBottom=0;whiteSpace=wrap;html=1;" parent="1" vertex="1">
          <mxGeometry x="220" y="620" width="250" height="66" as="geometry" />
        </mxCell>
        <mxCell id="-GdzhVlodLEhEL-gGOPg-25" value="Activity" style="text;strokeColor=#FFFAA0;strokeWidth=3;fillColor=none;align=center;verticalAlign=top;spacingLeft=4;spacingRight=4;overflow=hidden;rotatable=0;points=[[0,0.5],[1,0.5]];portConstraint=eastwest;whiteSpace=wrap;html=1;" parent="-GdzhVlodLEhEL-gGOPg-24" vertex="1">
          <mxGeometry y="40" width="250" height="26" as="geometry" />
        </mxCell>
        <mxCell id="-GdzhVlodLEhEL-gGOPg-26" value="Raw field data files on reindeer populations" style="swimlane;fontStyle=0;childLayout=stackLayout;horizontal=1;startSize=40;strokeColor=#F5DEB3;strokeWidth=2;fillColor=none;horizontalStack=0;resizeParent=1;resizeParentMax=0;resizeLast=0;collapsible=1;marginBottom=0;whiteSpace=wrap;html=1;" parent="1" vertex="1">
          <mxGeometry x="10" y="460" width="180" height="66" as="geometry" />
        </mxCell>
        <mxCell id="-GdzhVlodLEhEL-gGOPg-27" value="Instantiation&lt;div&gt;&lt;br&gt;&lt;/div&gt;" style="text;strokeColor=#F5DEB3;strokeWidth=2;fillColor=#F5DEB3;align=center;verticalAlign=top;spacingLeft=4;spacingRight=4;overflow=hidden;rotatable=0;points=[[0,0.5],[1,0.5]];portConstraint=eastwest;whiteSpace=wrap;html=1;" parent="-GdzhVlodLEhEL-gGOPg-26" vertex="1">
          <mxGeometry y="40" width="180" height="26" as="geometry" />
        </mxCell>
        <mxCell id="-GdzhVlodLEhEL-gGOPg-28" value="" style="endArrow=classic;html=1;rounded=0;exitX=0.5;exitY=0;exitDx=0;exitDy=0;entryX=0;entryY=0.5;entryDx=0;entryDy=0;" parent="1" source="-GdzhVlodLEhEL-gGOPg-26" target="-GdzhVlodLEhEL-gGOPg-3" edge="1">
          <mxGeometry relative="1" as="geometry">
            <mxPoint x="158" y="422" as="sourcePoint" />
            <mxPoint x="-20" y="340" as="targetPoint" />
          </mxGeometry>
        </mxCell>
        <mxCell id="-GdzhVlodLEhEL-gGOPg-29" value="is or was component of" style="edgeLabel;resizable=0;html=1;;align=center;verticalAlign=middle;" parent="-GdzhVlodLEhEL-gGOPg-28" connectable="0" vertex="1">
          <mxGeometry relative="1" as="geometry" />
        </mxCell>
        <mxCell id="-GdzhVlodLEhEL-gGOPg-30" value="" style="endArrow=classic;html=1;rounded=0;entryX=0.5;entryY=1;entryDx=0;entryDy=0;exitX=0;exitY=0.5;exitDx=0;exitDy=0;" parent="1" source="-GdzhVlodLEhEL-gGOPg-24" target="-GdzhVlodLEhEL-gGOPg-26" edge="1">
          <mxGeometry relative="1" as="geometry">
            <mxPoint x="285.5" y="555" as="sourcePoint" />
            <mxPoint x="464.5" y="440" as="targetPoint" />
          </mxGeometry>
        </mxCell>
        <mxCell id="-GdzhVlodLEhEL-gGOPg-31" value="affects or affected" style="edgeLabel;resizable=0;html=1;;align=center;verticalAlign=middle;" parent="-GdzhVlodLEhEL-gGOPg-30" connectable="0" vertex="1">
          <mxGeometry relative="1" as="geometry" />
        </mxCell>
        <mxCell id="-GdzhVlodLEhEL-gGOPg-37" value="" style="endArrow=classic;html=1;rounded=0;entryX=0.75;entryY=1;entryDx=0;entryDy=0;exitX=0.455;exitY=0.052;exitDx=0;exitDy=0;exitPerimeter=0;" parent="1" source="-GdzhVlodLEhEL-gGOPg-24" target="-GdzhVlodLEhEL-gGOPg-3" edge="1">
          <mxGeometry relative="1" as="geometry">
            <mxPoint x="335" y="610" as="sourcePoint" />
            <mxPoint x="370" y="506" as="targetPoint" />
          </mxGeometry>
        </mxCell>
        <mxCell id="-GdzhVlodLEhEL-gGOPg-38" value="results or resulted in" style="edgeLabel;resizable=0;html=1;;align=center;verticalAlign=middle;" parent="-GdzhVlodLEhEL-gGOPg-37" connectable="0" vertex="1">
          <mxGeometry relative="1" as="geometry" />
        </mxCell>
        <mxCell id="-GdzhVlodLEhEL-gGOPg-41" value="" style="endArrow=classic;html=1;rounded=0;exitX=0.688;exitY=1.081;exitDx=0;exitDy=0;exitPerimeter=0;entryX=0.25;entryY=0;entryDx=0;entryDy=0;" parent="1" source="roKK1uyL24OkzOTye3WL-2" target="-GdzhVlodLEhEL-gGOPg-45" edge="1">
          <mxGeometry relative="1" as="geometry">
            <mxPoint x="735.5" y="540" as="sourcePoint" />
            <mxPoint x="730" y="620" as="targetPoint" />
          </mxGeometry>
        </mxCell>
        <mxCell id="-GdzhVlodLEhEL-gGOPg-42" value="is associated with event" style="edgeLabel;resizable=0;html=1;;align=center;verticalAlign=middle;" parent="-GdzhVlodLEhEL-gGOPg-41" connectable="0" vertex="1">
          <mxGeometry relative="1" as="geometry" />
        </mxCell>
        <mxCell id="-GdzhVlodLEhEL-gGOPg-45" value="Impact of human activities upon reindeer populations" style="swimlane;fontStyle=0;childLayout=stackLayout;horizontal=1;startSize=43;strokeColor=#FFFAA0;strokeWidth=2;fillColor=none;horizontalStack=0;resizeParent=1;resizeParentMax=0;resizeLast=0;collapsible=1;marginBottom=0;whiteSpace=wrap;html=1;" parent="1" vertex="1">
          <mxGeometry x="730" y="620" width="180" height="69" as="geometry" />
        </mxCell>
        <mxCell id="-GdzhVlodLEhEL-gGOPg-46" value="Event" style="text;strokeColor=#FFFAA0;strokeWidth=2;fillColor=#FFFAA0;align=center;verticalAlign=top;spacingLeft=4;spacingRight=4;overflow=hidden;rotatable=0;points=[[0,0.5],[1,0.5]];portConstraint=eastwest;whiteSpace=wrap;html=1;" parent="-GdzhVlodLEhEL-gGOPg-45" vertex="1">
          <mxGeometry y="43" width="180" height="26" as="geometry" />
        </mxCell>
        <mxCell id="-GdzhVlodLEhEL-gGOPg-47" value="Reindeer" style="swimlane;fontStyle=0;childLayout=stackLayout;horizontal=1;startSize=26;strokeColor=#FBD5B5;fillColor=none;horizontalStack=0;resizeParent=1;resizeParentMax=0;resizeLast=0;collapsible=1;marginBottom=0;whiteSpace=wrap;html=1;" parent="1" vertex="1">
          <mxGeometry x="910" y="452" width="90" height="52" as="geometry" />
        </mxCell>
        <mxCell id="-GdzhVlodLEhEL-gGOPg-48" value="Thing" style="text;strokeColor=#FBD5B5;fillColor=#FBD5B5;align=center;verticalAlign=top;spacingLeft=4;spacingRight=4;overflow=hidden;rotatable=0;points=[[0,0.5],[1,0.5]];portConstraint=eastwest;whiteSpace=wrap;html=1;" parent="-GdzhVlodLEhEL-gGOPg-47" vertex="1">
          <mxGeometry y="26" width="90" height="26" as="geometry" />
        </mxCell>
        <mxCell id="-GdzhVlodLEhEL-gGOPg-49" value="" style="endArrow=classic;html=1;rounded=0;entryX=0;entryY=0.5;entryDx=0;entryDy=0;exitX=1.016;exitY=-0.14;exitDx=0;exitDy=0;exitPerimeter=0;" parent="1" source="roKK1uyL24OkzOTye3WL-2" target="-GdzhVlodLEhEL-gGOPg-47" edge="1">
          <mxGeometry relative="1" as="geometry">
            <mxPoint x="820" y="490" as="sourcePoint" />
            <mxPoint x="1240" y="492" as="targetPoint" />
          </mxGeometry>
        </mxCell>
        <mxCell id="-GdzhVlodLEhEL-gGOPg-50" value="has or had main subject" style="edgeLabel;resizable=0;html=1;;align=center;verticalAlign=middle;" parent="-GdzhVlodLEhEL-gGOPg-49" connectable="0" vertex="1">
          <mxGeometry relative="1" as="geometry" />
        </mxCell>
        <mxCell id="-GdzhVlodLEhEL-gGOPg-51" value="Sámi people" style="swimlane;fontStyle=0;childLayout=stackLayout;horizontal=1;startSize=26;strokeColor=#C6D9F1;strokeWidth=2;fillColor=none;horizontalStack=0;resizeParent=1;resizeParentMax=0;resizeLast=0;collapsible=1;marginBottom=0;whiteSpace=wrap;html=1;" parent="1" vertex="1">
          <mxGeometry x="1200.5" y="290" width="109" height="52" as="geometry" />
        </mxCell>
        <mxCell id="-GdzhVlodLEhEL-gGOPg-52" value="Group&lt;div&gt;&lt;br&gt;&lt;/div&gt;" style="text;strokeColor=#C6D9F1;strokeWidth=2;fillColor=#C6D9F1;align=center;verticalAlign=top;spacingLeft=4;spacingRight=4;overflow=hidden;rotatable=0;points=[[0,0.5],[1,0.5]];portConstraint=eastwest;whiteSpace=wrap;html=1;" parent="-GdzhVlodLEhEL-gGOPg-51" vertex="1">
          <mxGeometry y="26" width="109" height="26" as="geometry" />
        </mxCell>
        <mxCell id="-GdzhVlodLEhEL-gGOPg-53" value="Reindeer herding" style="swimlane;fontStyle=0;childLayout=stackLayout;horizontal=1;startSize=26;strokeColor=#FFFAA0;strokeWidth=3;fillColor=none;horizontalStack=0;resizeParent=1;resizeParentMax=0;resizeLast=0;collapsible=1;marginBottom=0;whiteSpace=wrap;html=1;" parent="1" vertex="1">
          <mxGeometry x="1180" y="454" width="150" height="52" as="geometry" />
        </mxCell>
        <mxCell id="-GdzhVlodLEhEL-gGOPg-54" value="Activity" style="text;strokeColor=#FFFAA0;strokeWidth=3;fillColor=none;align=center;verticalAlign=top;spacingLeft=4;spacingRight=4;overflow=hidden;rotatable=0;points=[[0,0.5],[1,0.5]];portConstraint=eastwest;whiteSpace=wrap;html=1;" parent="-GdzhVlodLEhEL-gGOPg-53" vertex="1">
          <mxGeometry y="26" width="150" height="26" as="geometry" />
        </mxCell>
        <mxCell id="-GdzhVlodLEhEL-gGOPg-55" value="" style="endArrow=classic;html=1;rounded=0;entryX=0.5;entryY=0;entryDx=0;entryDy=0;exitX=0.5;exitY=1;exitDx=0;exitDy=0;" parent="1" source="-GdzhVlodLEhEL-gGOPg-51" target="-GdzhVlodLEhEL-gGOPg-53" edge="1">
          <mxGeometry relative="1" as="geometry">
            <mxPoint x="1230" y="559" as="sourcePoint" />
            <mxPoint x="1389" y="454" as="targetPoint" />
          </mxGeometry>
        </mxCell>
        <mxCell id="-GdzhVlodLEhEL-gGOPg-56" value="performs or performed" style="edgeLabel;resizable=0;html=1;;align=center;verticalAlign=middle;" parent="-GdzhVlodLEhEL-gGOPg-55" connectable="0" vertex="1">
          <mxGeometry relative="1" as="geometry" />
        </mxCell>
        <mxCell id="-GdzhVlodLEhEL-gGOPg-57" value="" style="endArrow=classic;html=1;rounded=0;entryX=1;entryY=0.5;entryDx=0;entryDy=0;exitX=0.005;exitY=-0.05;exitDx=0;exitDy=0;exitPerimeter=0;" parent="1" source="-GdzhVlodLEhEL-gGOPg-54" target="-GdzhVlodLEhEL-gGOPg-47" edge="1">
          <mxGeometry relative="1" as="geometry">
            <mxPoint x="980" y="653" as="sourcePoint" />
            <mxPoint x="860" y="526" as="targetPoint" />
          </mxGeometry>
        </mxCell>
        <mxCell id="-GdzhVlodLEhEL-gGOPg-58" value="affects or affected" style="edgeLabel;resizable=0;html=1;;align=center;verticalAlign=middle;" parent="-GdzhVlodLEhEL-gGOPg-57" connectable="0" vertex="1">
          <mxGeometry relative="1" as="geometry" />
        </mxCell>
        <mxCell id="-GdzhVlodLEhEL-gGOPg-59" value="" style="endArrow=classic;html=1;rounded=0;exitX=1;exitY=0.5;exitDx=0;exitDy=0;" parent="1" source="-GdzhVlodLEhEL-gGOPg-45" target="-GdzhVlodLEhEL-gGOPg-54" edge="1">
          <mxGeometry relative="1" as="geometry">
            <mxPoint x="1171" y="653.41" as="sourcePoint" />
            <mxPoint x="990" y="652.41" as="targetPoint" />
          </mxGeometry>
        </mxCell>
        <mxCell id="-GdzhVlodLEhEL-gGOPg-60" value="affects or affected" style="edgeLabel;resizable=0;html=1;;align=center;verticalAlign=middle;" parent="-GdzhVlodLEhEL-gGOPg-59" connectable="0" vertex="1">
          <mxGeometry relative="1" as="geometry" />
        </mxCell>
      </root>
    </mxGraphModel>
  </diagram>
</mxfile>
